<?xml version="1.0" encoding="utf-8"?>
<!DOCTYPE svg PUBLIC "-//W3C//DTD SVG 1.0//EN" "http://www.w3.org/TR/2001/REC-SVG-20010904/DTD/svg10.dtd">
<svg version="1.0" xmlns="http://www.w3.org/2000/svg" width="1920px" height="1080px" viewBox="0 0 1408 768" preserveAspectRatio="xMidYMid meet">
 <g fill="#868686">
  <path d="M523.25 530 c-0.50 -0.85 0.70 -2.45 3.50 -4.55 3.50 -2.65 4.25 -4.95 2.40 -7.05 -1.05 -1.20 -3.40 -1.15 -5.45 0.15 -0.90 0.55 -3.30 2.80 -5.35 4.95 l-3.65 3.95 -4.35 0.35 c-2.40 0.20 -4.35 0.20 -4.35 0 0 -1.50 9.20 -11.25 15.05 -15.95 6.70 -5.40 18.20 -8.60 43.95 -12.35 24.45 -3.55 32.05 -6.25 39.05 -13.90 6.25 -6.80 7.10 -10.95 2.60 -12.30 -1.50 -0.50 -2.85 0.35 -4.20 2.55 -2.90 4.75 -7.50 8.70 -12.55 10.80 -1.90 0.80 -9.05 2.85 -9.90 2.85 -0.80 0 -9.10 -7.15 -12.45 -10.75 -6.55 -7.05 -12.35 -16.10 -16.80 -26.10 -2.70 -6.15 -4.20 -11.05 -6.70 -22 -2.95 -12.75 -5.75 -20.40 -9.50 -25.90 -0.60 -0.80 -1.05 -1.65 -1.05 -1.80 0 -0.20 0.95 -0.15 2.15 0.10 4.15 0.80 13.45 0.50 17.60 -0.55 4.55 -1.15 5.75 -2.05 5.75 -4.20 0 -3.60 -2.50 -4.65 -7.05 -3.05 -5.25 1.90 -11.35 1.55 -26.95 -1.50 -12.10 -2.35 -18.30 -3.15 -28.75 -3.75 -11.40 -0.65 -15.95 -1.25 -20.75 -2.80 -5.75 -1.80 -12.10 -6.65 -14.45 -11.05 -0.70 -1.40 -0.55 -1.40 1.55 -0.20 3.70 2.20 10.50 3.15 14.50 2.05 3.25 -0.90 4.45 -4.20 2.35 -6.45 -0.95 -1.05 -1.30 -1.10 -4.85 -0.80 -6.40 0.60 -10.25 -1.20 -12.15 -5.50 -0.45 -1.10 -1.50 -5.90 -2.25 -10.70 -1.45 -9.45 -1.95 -10.55 -4.70 -10.55 -2.10 0 -3.50 1.55 -3.50 3.85 0 1.05 0.55 5.15 1.25 9.15 1.35 8 1.55 10 0.75 9.20 -1.35 -1.35 -3.85 -14.20 -5.25 -26.70 -1.10 -9.90 -1.20 -9.25 1.85 -10.25 1.45 -0.45 4.15 -1.70 5.95 -2.80 3.50 -2.10 4.50 -2.35 5.40 -1.25 0.45 0.55 0.30 0.85 -0.70 1.50 -2.75 1.80 -0.85 5.30 2.95 5.30 5.45 0 7.70 -6.75 3.70 -11.30 -3.65 -4.15 -7.10 -4.30 -14.15 -0.70 -2.70 1.35 -5.20 2.50 -5.55 2.50 -0.90 0 -0.95 -3.35 -0.15 -7.10 1.40 -6.50 4.80 -11.15 11.45 -15.55 8.90 -5.90 32.60 -16.35 51.20 -22.65 22.10 -7.45 36.55 -10.60 54.45 -11.75 7.35 -0.50 24.85 -0.25 26.95 0.35 0.75 0.20 0.65 0.65 -0.90 3.45 -2.10 3.85 -2.15 5.90 -0.10 7.40 2 1.50 3.80 0.75 5.35 -2.15 7.10 -13.50 14.95 -20.65 22.55 -20.75 3.45 0 5.40 1.25 8 5.35 2.40 3.65 3.20 7 2.85 11.50 -0.55 6.65 -3.90 11.50 -11.20 16.20 -2.25 1.50 -4.35 3.10 -4.65 3.65 -1.30 2.50 0.30 5.25 3.10 5.25 2.20 0 7.40 -3.25 11.70 -7.30 l3.05 -2.90 3.35 2.65 c5 4 19.85 14.25 25.80 17.85 15.45 9.30 28.85 13.40 39.40 12 6.10 -0.80 9.15 -1.55 23.35 -5.75 22.45 -6.65 35.35 -9.80 49.60 -12 41.80 -6.50 83.15 -1.25 115.15 14.70 42.25 21.05 72.60 61.60 82 109.50 2.10 10.60 2.65 17.75 2.35 29.30 -0.35 12.75 -1.70 20.95 -5.20 31.25 -4.70 13.80 -14.10 27.30 -23.90 34.30 -9 6.35 -20.95 9.70 -35 9.70 l-4.30 0 1.05 -1.35 c2.70 -3.45 3.20 -7 1.25 -8.90 -2.25 -2.30 -4.70 -1.30 -6.25 2.55 -1.25 3.05 -4.45 6.30 -7.05 7.10 -1.95 0.60 -117.95 1.40 -117.95 0.80 0 -0.20 1.15 -1.55 2.50 -3 2.75 -2.90 3 -3.90 1.45 -5.90 -1.90 -2.45 -4.90 -1.45 -8.65 2.80 -1.30 1.45 -2.70 3.50 -3.20 4.50 l-0.85 1.85 -5.85 0.05 c-3.25 0 -5.90 -0.20 -5.90 -0.40 0 -0.25 0.70 -1.70 1.55 -3.25 2.95 -5.45 8.05 -9.90 13.10 -11.40 4 -1.25 8.55 -1.50 30.05 -1.90 22.90 -0.45 23 -0.45 23.90 -1.55 0.50 -0.60 0.90 -1.75 0.90 -2.50 0 -1.20 -0.90 -2.15 -5.85 -6.15 -15.60 -12.50 -24.20 -25.25 -28.50 -42.10 -1.65 -6.70 -2.15 -18.35 -0.95 -25.05 1.75 -10.25 6.20 -20.25 12.30 -27.80 10.30 -12.80 26.80 -20.90 46 -22.65 2.75 -0.25 4.05 -0.65 4.90 -1.40 1.85 -1.75 1.20 -4.95 -1.20 -5.85 -1.40 -0.55 -8.05 0.05 -14.15 1.30 -24.90 5 -44.65 21.55 -52 43.55 -2.90 8.65 -3.70 13.50 -3.70 23.15 0 13 1.90 21.05 7.70 32.75 3.90 7.85 8.45 14.15 15.20 21.10 l5.55 5.65 -4.30 0 c-12.65 0.10 -32.05 1 -35.25 1.70 -7.45 1.65 -14.80 6.75 -18.60 12.90 l-1.90 3.05 -16 -0.35 c-19.05 -0.40 -44.45 -1.25 -49.95 -1.70 l-4 -0.35 1.55 -1.75 c4.05 -4.65 9.15 -14.35 9.15 -17.40 0 -2.70 -3.50 -4.60 -5.60 -2.95 -0.45 0.30 -1.45 2.15 -2.20 4 -3.60 9.15 -10.80 16.65 -20.35 21.10 -7.90 3.75 -3.40 3.50 -63.35 3.30 -58.60 -0.15 -58.20 -0.15 -68.80 2.70 -4.95 1.35 -6.50 1.50 -6.95 0.75z m34.75 -226.55 c8.40 -1.35 16.80 -6.60 15.65 -9.80 -1.10 -3.10 -3.30 -3.35 -7.75 -0.95 -5.05 2.75 -8.60 3.50 -16.95 3.55 -8.20 0 -8.95 0.25 -8.95 3.05 0 2.30 1.40 3.55 4.35 3.95 1.30 0.15 2.75 0.40 3.15 0.45 1.75 0.40 7.50 0.25 10.50 -0.25z m47.35 -21.55 c0.55 -0.65 1.70 -2.60 2.55 -4.40 2.90 -6.10 7.95 -11.35 12 -12.45 3.25 -0.90 4.25 -2.60 3.05 -5.20 -2.75 -6 -15.45 2.25 -21.20 13.75 -2.50 5.05 -2.75 6.55 -1.15 8.25 1.35 1.45 3.45 1.50 4.75 0.05z"/>
  <path d="M496 513.60 c0 -0.05 0.75 -0.90 1.70 -1.80 0.90 -0.95 1.80 -2.30 2 -3.10 0.50 -1.95 -1.05 -3.90 -3.25 -4.10 -1.50 -0.15 -2 0.20 -6 4.35 l-4.35 4.55 -4.30 0 c-3.50 0 -4.30 -0.15 -4.30 -0.75 0 -1.30 4.40 -5.80 12.25 -12.55 5.65 -4.85 8.45 -6.85 12.50 -8.85 4.45 -2.25 6.60 -2.85 20 -5.60 6.05 -1.25 12.95 -2.80 15.35 -3.50 4.20 -1.20 15 -6.20 15.65 -7.25 0.70 -1.10 1.75 -0.35 4.05 2.90 1.35 1.85 4.60 5.55 7.30 8.25 2.70 2.70 4.90 5 4.90 5.10 0 0.10 -0.85 0.30 -1.85 0.45 -1.05 0.15 -5.70 0.85 -10.40 1.60 -21.05 3.20 -31.10 6.15 -38.75 11.35 -1.20 0.85 -3.90 3.15 -6 5.15 l-3.75 3.60 -6.40 0.15 c-3.50 0.10 -6.35 0.15 -6.35 0.05z"/>
  <path d="M584.25 258 l-7 -0.25 3.25 -3.30 c6.35 -6.40 11 -6.70 13.85 -0.90 0.55 1.20 1.20 2.80 1.35 3.60 0.30 1.35 0.30 1.35 -2.05 1.25 -1.35 -0.05 -5.55 -0.25 -9.40 -0.40z"/>
 </g>
</svg>